# xmcd
#
# Track frame offsets:
# 150
# 19891
# 41373
# 63128
# 83514
# 102661
# 111463
# 134140
# 148970
#
# Disc length: 2281 seconds
#
# Revision: 1
# Processed by: cddbd v1.5.2PL0 Copyright (c) Steve Scherf et al.
# Submitted via: CedeCatalogueitor 2.6.0.6 http://personales.ya.com/cdcatalogueitor
#
DISCID=8208e709
DTITLE=Ainara LeGardon - Forgive Me If...
DYEAR=1900
DGENRE=
TTITLE0=Weightless
TTITLE1=Sickness
TTITLE2=The Death Most Desired
TTITLE3=Your Own Dirt
TTITLE4=The Third
TTITLE5=The Morning Of The Eartquake
TTITLE6=I Won't Forget
TTITLE7=Knowing
TTITLE8=Stained Sounds
EXTD=
EXTT0=
EXTT1=
EXTT2=
EXTT3=
EXTT4=
EXTT5=
EXTT6=
EXTT7=
EXTT8=
PLAYORDER=
